<svg xmlns="http://www.w3.org/2000/svg" viewBox="0 0 1200 820" role="img" aria-labelledby="title desc">
  <title id="title">Terrazzo West Palm Beach development corridor map</title>
  <desc id="desc">A bright graphic static map with terrazzo texture, waterfront corridors, and project districts.</desc>
  <defs>
    <pattern id="chips" width="120" height="120" patternUnits="userSpaceOnUse">
      <path d="M18 20 L42 12 L54 36 L28 48 Z" fill="#d6ad67" opacity="0.16"/>
      <path d="M78 70 L110 62 L102 100 L72 94 Z" fill="#6f9691" opacity="0.17"/>
      <circle cx="82" cy="24" r="8" fill="#c98657" opacity="0.14"/>
      <path d="M14 88 L44 78 L36 112 Z" fill="#1f3a40" opacity="0.08"/>
    </pattern>
    <linearGradient id="water" x1="0" x2="1" y1="0" y2="1">
      <stop offset="0" stop-color="#cfe9df"/>
      <stop offset="0.55" stop-color="#7fa9a2"/>
      <stop offset="1" stop-color="#315f67"/>
    </linearGradient>
    <filter id="cardShadow"><feDropShadow dx="0" dy="10" stdDeviation="12" flood-color="#223034" flood-opacity="0.16"/></filter>
  </defs>
  <rect width="1200" height="820" fill="#fff8e9"/>
  <rect width="1200" height="820" fill="url(#chips)"/>
  <path d="M552 0 C630 135 610 253 575 367 C535 498 558 642 638 820 L790 820 C724 654 698 511 730 374 C762 232 824 112 868 0 Z" fill="url(#water)"/>
  <path d="M507 0 C523 126 509 244 469 356 C420 496 421 650 490 820 L0 820 L0 0 Z" fill="#f3ead6"/>
  <path d="M872 0 C842 142 840 292 862 418 C888 568 942 696 1000 820 L1200 820 L1200 0 Z" fill="#f9f1dd"/>
  <g fill="none" stroke="#25363a" stroke-opacity="0.12">
    <path d="M88 102 H450"/>
    <path d="M80 190 H430"/>
    <path d="M66 278 H414"/>
    <path d="M63 366 H398"/>
    <path d="M72 454 H386"/>
    <path d="M88 542 H394"/>
    <path d="M108 630 H432"/>
    <path d="M126 76 V760"/>
    <path d="M232 72 V782"/>
    <path d="M338 82 V790"/>
  </g>
  <g filter="url(#cardShadow)">
    <rect x="72" y="66" width="420" height="112" rx="18" fill="#fffaf1" stroke="#d6ad67" stroke-opacity="0.38"/>
    <text x="102" y="116" font-family="Iowan Old Style, Georgia, serif" font-size="33" letter-spacing="4" fill="#24363a">CORRIDOR MAP</text>
    <text x="104" y="146" font-family="Avenir Next, Helvetica, Arial, sans-serif" font-size="14" letter-spacing="3" fill="#9a7a4f">Static buyer map concept C</text>
  </g>
  <g filter="url(#cardShadow)">
    <path d="M312 148 C408 96 504 132 528 218 C550 297 482 360 386 342 C302 326 258 232 312 148 Z" fill="#fffaf1" stroke="#d6ad67" stroke-width="3"/>
    <path d="M304 424 C398 352 508 382 538 470 C566 552 502 640 404 630 C310 620 236 504 304 424 Z" fill="#fffaf1" stroke="#6f9691" stroke-width="3"/>
    <path d="M754 574 C826 520 928 548 966 628 C1004 709 934 788 848 782 C762 776 692 646 754 574 Z" fill="#fffaf1" stroke="#c98657" stroke-width="3"/>
  </g>
  <g fill="none" stroke-linecap="round">
    <path d="M478 56 C448 190 402 345 384 486 C370 603 386 704 422 790" stroke="#9a7a4f" stroke-width="8"/>
    <path d="M882 48 C864 194 864 316 888 448 C912 584 958 706 1018 788" stroke="#9a7a4f" stroke-width="5" opacity="0.68"/>
    <path d="M166 668 C286 614 394 628 482 704 C536 750 588 770 656 760" stroke="#6f9691" stroke-width="5" stroke-dasharray="14 12"/>
  </g>
  <g font-family="Avenir Next, Helvetica, Arial, sans-serif" fill="#24363a">
    <text x="356" y="205" font-size="24" font-weight="700">North Flagler</text>
    <text x="354" y="234" font-size="16">waterfront tower cluster</text>
    <text x="352" y="496" font-size="24" font-weight="700">Downtown</text>
    <text x="352" y="525" font-size="16">NORA, CityPlace, South Dixie</text>
    <text x="690" y="654" font-size="24" font-weight="700">South Flagler</text>
    <text x="690" y="683" font-size="16">estate-scale waterfront corridor</text>
  </g>
  <g fill="#24363a">
    <circle cx="330" cy="205" r="9"/>
    <circle cx="326" cy="496" r="9"/>
    <circle cx="664" cy="654" r="9"/>
  </g>
</svg>
